<svg width="308" height="98" viewBox="0 0 308 98" fill="none" xmlns="http://www.w3.org/2000/svg">
<path d="M48.4368 98C75.1877 98 96.8736 76.062 96.8736 49C96.8736 21.938 75.1877 0 48.4368 0C21.6859 0 0 21.938 0 49C0 76.062 21.6859 98 48.4368 98Z" fill="#C71D23"/>
<path fill-rule="evenodd" clip-rule="evenodd" d="M72.9542 43.5553H45.447C44.1262 43.5559 43.0554 44.6389 43.0545 45.975L43.0529 52.0242C43.0519 53.3605 44.1225 54.4442 45.4436 54.4445C45.4433 54.4452 45.4438 54.4445 45.4436 54.4445L62.1905 54.4437C63.5115 54.4437 64.5824 55.5271 64.5825 56.8634C64.5825 56.8634 64.5825 56.8634 64.5825 56.8634L64.5824 57.4683V58.0733C64.5824 62.0824 61.3697 65.3325 57.4067 65.3325H34.6816C33.3607 65.3324 32.29 64.2492 32.2899 62.913L32.2893 39.9259C32.2889 35.9168 35.5016 32.6666 39.4646 32.6665C39.4646 32.6663 39.4647 32.6665 39.4646 32.6665L72.9475 32.6667C74.2679 32.6652 75.3386 31.5828 75.3409 30.247L75.3446 24.1979C75.3469 22.8615 74.2767 21.7774 72.9557 21.7766C72.9552 21.7766 72.9547 21.7766 72.9542 21.7781H39.4669C29.5592 21.7781 21.5275 29.9033 21.5275 39.9262V73.8014C21.5275 75.1377 22.5984 76.2211 23.9194 76.2211H59.201C68.1177 76.2211 75.3461 68.9086 75.3461 59.8882V45.975C75.3461 44.6387 74.2752 43.5553 72.9542 43.5553Z" fill="white"/>
<path d="M140.037 86.75C147.318 86.75 153.13 85.3134 157.474 82.4401C161.818 79.5668 163.99 75.8463 163.99 71.2785C163.99 63.9111 158.554 60.2274 147.682 60.2274H140.983C138.751 60.2274 137.149 60.0063 136.178 59.5643C135.207 59.1223 134.722 58.3855 134.722 57.3541C134.722 56.3226 135.038 55.4631 135.669 54.7755C135.911 54.4808 136.227 54.3826 136.615 54.4808C138.168 54.9228 139.649 55.1439 141.056 55.1439C146.056 55.1439 150.121 53.9282 153.251 51.497C156.382 49.0657 157.947 45.468 157.947 40.7037C157.947 38.9356 157.632 37.3638 157.001 35.9886C156.952 35.8904 156.964 35.7799 157.037 35.6571C157.11 35.5343 157.219 35.4729 157.365 35.4729H159.039C160.253 35.4729 161.272 35.0554 162.097 34.2204C162.922 33.3854 163.335 32.354 163.335 31.1261V30.0947C163.335 28.9159 162.922 27.8967 162.097 27.0372C161.272 26.1777 160.253 25.7479 159.039 25.7479H148.337C147.997 25.7479 147.633 25.6988 147.245 25.6006C145.352 25.0112 143.289 24.7165 141.056 24.7165C137.901 24.7165 135.013 25.269 132.392 26.3741C129.771 27.4792 127.599 29.2474 125.876 31.6787C124.153 34.1099 123.292 36.9955 123.292 40.3354C123.292 42.6438 123.826 44.7558 124.893 46.6713C125.961 48.5869 127.296 50.134 128.898 51.3128C128.995 51.3619 129.043 51.4356 129.043 51.5338C129.043 51.6321 128.995 51.7303 128.898 51.8285C127.539 52.8108 126.447 54.0019 125.621 55.4017C124.796 56.8015 124.384 58.2382 124.384 59.7116C124.384 62.8551 125.621 65.2863 128.097 67.0054C128.194 67.0545 128.242 67.1404 128.242 67.2632C128.242 67.386 128.194 67.4965 128.097 67.5948C126.155 68.5771 124.687 69.7804 123.692 71.2048C122.697 72.6292 122.2 74.2009 122.2 75.9199C122.2 78.3757 123.025 80.4386 124.675 82.1086C126.325 83.7785 128.449 84.9696 131.045 85.6817C133.642 86.3939 136.639 86.75 140.037 86.75ZM141.056 47.0397C139.455 47.0397 138.156 46.4626 137.161 45.3084C136.166 44.1541 135.669 42.4965 135.669 40.3354C135.669 38.2234 136.166 36.5903 137.161 35.436C138.156 34.2818 139.455 33.7047 141.056 33.7047C142.658 33.7047 143.956 34.2695 144.951 35.3992C145.946 36.5289 146.444 38.1743 146.444 40.3354C146.444 42.4965 145.946 44.1541 144.951 45.3084C143.956 46.4626 142.658 47.0397 141.056 47.0397ZM142.076 78.3512C139.309 78.3512 137.113 77.9705 135.487 77.2092C133.861 76.4479 133.048 75.306 133.048 73.7834C133.048 72.5555 133.606 71.4013 134.722 70.3207C134.868 70.1734 135.086 70.0997 135.377 70.0997H135.596C136.809 70.3453 138.654 70.4681 141.129 70.4681H145.133C147.269 70.4681 148.834 70.6891 149.829 71.1311C150.824 71.5732 151.322 72.3836 151.322 73.5624C151.322 74.9376 150.46 76.0796 148.737 76.9882C147.014 77.8969 144.794 78.3512 142.076 78.3512ZM177.314 19.5593C179.498 19.5593 181.294 18.9208 182.701 17.6438C184.109 16.3667 184.813 14.7213 184.813 12.7076C184.813 10.6938 184.109 9.03616 182.701 7.73459C181.294 6.43301 179.498 5.78223 177.314 5.78223C175.081 5.78223 173.249 6.43301 171.817 7.73459C170.385 9.03616 169.669 10.6938 169.669 12.7076C169.669 14.7213 170.385 16.3667 171.817 17.6438C173.249 18.9208 175.081 19.5593 177.314 19.5593ZM179.571 68.4789C180.735 68.4789 181.743 68.0491 182.592 67.1896C183.441 66.33 183.866 65.3109 183.866 64.1321V29.8736C183.866 28.6949 183.441 27.6757 182.592 26.8162C181.743 25.9566 180.735 25.5269 179.571 25.5269H174.984C173.77 25.5269 172.751 25.9566 171.926 26.8162C171.101 27.6757 170.688 28.6949 170.688 29.8736V64.1321C170.688 65.3109 171.101 66.33 171.926 67.1896C172.751 68.0491 173.77 68.4789 174.984 68.4789H179.571ZM211.241 69.5103C213.085 69.5103 214.906 69.3384 216.701 68.9946C217.866 68.7981 218.764 68.1596 219.395 67.0791C219.832 66.3423 220.051 65.581 220.051 64.7952C220.051 64.4513 220.026 64.083 219.978 63.69L219.687 62.5113C219.444 61.4798 218.837 60.6571 217.866 60.0432C216.896 59.4292 215.804 59.0977 214.59 59.0486C211.241 58.9012 209.567 56.691 209.567 52.4179V36.578C209.567 36.2342 209.736 36.0623 210.076 36.0623H215.245C216.41 36.0623 217.417 35.6325 218.267 34.773C219.116 33.9134 219.541 32.8943 219.541 31.7155V29.8736C219.541 28.6949 219.116 27.6757 218.267 26.8162C217.417 25.9566 216.41 25.5269 215.245 25.5269H210.076C209.736 25.5269 209.567 25.355 209.567 25.0112V18.6015C209.567 17.3736 209.142 16.3422 208.292 15.5072C207.443 14.6722 206.436 14.2547 205.271 14.2547H202.796C201.582 14.2547 200.514 14.66 199.592 15.4704C198.67 16.2808 198.112 17.2999 197.918 18.5278L197.117 25.0112C197.068 25.355 196.85 25.5514 196.461 25.6006L194.787 25.7479C193.574 25.8461 192.554 26.3496 191.729 27.2582C190.904 28.1669 190.491 29.2351 190.491 30.463V31.7155C190.491 32.8943 190.916 33.9134 191.765 34.773C192.615 35.6325 193.622 36.0623 194.787 36.0623H195.733C196.073 36.0623 196.243 36.2342 196.243 36.578V52.5653C196.243 57.9189 197.456 62.0815 199.883 65.053C202.31 68.0245 206.096 69.5103 211.241 69.5103ZM246.843 69.5103C250.726 69.5103 254.561 68.6017 258.346 66.7844C259.414 66.2932 260.094 65.4337 260.385 64.2058C260.531 63.8128 260.603 63.4199 260.603 63.027C260.603 62.2902 260.385 61.5535 259.948 60.8168L259.73 60.3747C259.147 59.3433 258.298 58.6557 257.182 58.3118C256.648 58.1645 256.114 58.0908 255.58 58.0908C254.949 58.0908 254.342 58.189 253.76 58.3855C252.109 58.9749 250.411 59.2696 248.663 59.2696C242.936 59.2696 239.465 56.691 238.252 51.5338C238.203 51.3865 238.228 51.2514 238.325 51.1286C238.422 51.0058 238.543 50.9444 238.689 50.9444H258.71C259.972 50.9444 261.089 50.5392 262.06 49.7288C263.03 48.9184 263.54 47.8992 263.588 46.6713V45.2715C263.588 39.0829 262.035 34.0731 258.929 30.242C255.822 26.411 251.309 24.4954 245.387 24.4954C242.815 24.4954 240.327 25.0234 237.924 26.0794C235.522 27.1354 233.386 28.6089 231.517 30.4999C229.649 32.3908 228.144 34.773 227.004 37.6463C225.863 40.5196 225.293 43.6507 225.293 47.0397C225.293 53.9651 227.319 59.4415 231.372 63.469C235.425 67.4965 240.582 69.5103 246.843 69.5103ZM251.794 42.2509H238.47C238.131 42.2509 237.961 42.1281 237.961 41.8825C237.961 39.8688 238.907 38.076 240.8 36.5043C242.159 35.3255 243.785 34.7361 245.678 34.7361C247.862 34.7361 249.501 35.3624 250.593 36.6148C251.685 37.8673 252.279 39.5495 252.376 41.6615V41.7352C252.376 42.079 252.182 42.2509 251.794 42.2509ZM291.255 69.5103C295.138 69.5103 298.972 68.6017 302.758 66.7844C303.826 66.2932 304.505 65.4337 304.797 64.2058C304.942 63.8128 305.015 63.4199 305.015 63.027C305.015 62.2902 304.797 61.5535 304.36 60.8168L304.141 60.3747C303.559 59.3433 302.709 58.6557 301.593 58.3118C301.059 58.1645 300.525 58.0908 299.991 58.0908C299.36 58.0908 298.754 58.189 298.171 58.3855C296.521 58.9749 294.822 59.2696 293.075 59.2696C287.347 59.2696 283.877 56.691 282.664 51.5338C282.615 51.3865 282.639 51.2514 282.736 51.1286C282.833 51.0058 282.955 50.9444 283.1 50.9444H303.122C304.384 50.9444 305.5 50.5392 306.471 49.7288C307.442 48.9184 307.951 47.8992 308 46.6713V45.2715C308 39.0829 306.447 34.0731 303.34 30.242C300.234 26.411 295.72 24.4954 289.799 24.4954C287.226 24.4954 284.739 25.0234 282.336 26.0794C279.933 27.1354 277.798 28.6089 275.929 30.4999C274.06 32.3908 272.556 34.773 271.415 37.6463C270.274 40.5196 269.704 43.6507 269.704 47.0397C269.704 53.9651 271.731 59.4415 275.783 63.469C279.836 67.4965 284.993 69.5103 291.255 69.5103ZM296.205 42.2509H282.882C282.542 42.2509 282.372 42.1281 282.372 41.8825C282.372 39.8688 283.319 38.076 285.212 36.5043C286.571 35.3255 288.197 34.7361 290.09 34.7361C292.274 34.7361 293.912 35.3624 295.004 36.6148C296.096 37.8673 296.691 39.5495 296.788 41.6615V41.7352C296.788 42.079 296.594 42.2509 296.205 42.2509Z" fill="black"/>
</svg>
