<svg width="308" height="95" viewBox="0 0 308 95" fill="none" xmlns="http://www.w3.org/2000/svg">
<g clip-path="url(#clip0_473_915)">
<path d="M175.588 22.3083C175.588 25.7625 175.876 25.9064 184.8 25.9064C189.981 25.9064 194.587 26.626 195.018 27.3457C195.45 28.2092 191.708 38.1401 186.527 49.6541C176.452 71.5307 175.157 78.0074 179.762 80.598C181.489 81.4616 193.147 82.0373 207.828 82.0373H233.158V78.4391V74.841H210.13C191.42 74.841 186.815 74.4092 186.239 72.826C185.807 71.6746 190.557 59.5849 197.033 45.912C203.366 32.2391 208.115 20.4373 207.828 19.8616C207.396 19.2859 200.056 18.7102 191.276 18.7102H175.588V22.3083Z" fill="black"/>
<path d="M225.243 24.6112C221.933 31.9514 218.191 34.542 211.282 34.542C206.821 34.542 205.381 35.2617 204.086 38.1402C203.222 40.1551 202.791 42.1701 203.366 42.6019C205.093 44.329 220.35 41.3065 223.804 38.572C227.258 35.8374 234.598 23.3159 234.598 20.1495C234.598 19.4299 233.015 18.7103 231.288 18.7103C228.697 18.7103 227.258 20.1495 225.243 24.6112Z" fill="black"/>
<path d="M243.233 19.7177C243.233 21.7326 251.005 30.656 255.035 33.1027L259.353 35.6934L253.884 39.4354C250.861 41.4504 247.551 43.1775 246.544 43.1775C245.536 43.1775 244.673 44.7607 244.673 46.7756C244.673 51.0934 245.968 51.2373 253.308 47.4953C260.36 43.8971 260.504 43.8971 260.504 48.2149C260.504 50.8055 261.224 51.813 263.383 51.813C266.117 51.813 266.261 50.8055 266.261 35.2616C266.261 19.7177 266.117 18.7102 263.383 18.7102C261.08 18.7102 260.504 19.7177 260.504 23.028C260.504 25.3308 259.785 27.3457 258.921 27.3457C258.058 27.3457 255.611 25.3308 253.596 23.028C251.778 20.9727 248.831 17.8618 246.544 17.271C244.666 16.7861 243.233 18.485 243.233 19.7177Z" fill="black"/>
<path d="M276.049 23.0281C272.019 26.9141 269.284 31.6636 272.019 31.6636C272.882 31.6636 275.041 30.6562 276.912 29.3608C280.942 26.7702 295.191 27.058 296.054 29.6487C296.342 30.6562 295.191 33.1029 293.32 35.1178L290.009 39.0038L286.123 35.2618C282.813 32.0954 281.662 31.8076 279.071 33.1029L276.049 34.83L279.071 37.9963C280.798 39.7235 282.093 41.5945 282.093 42.0263C282.093 42.458 279.503 43.1777 276.336 43.7534C271.731 44.473 270.579 45.1926 270.579 47.7833C270.579 50.5178 271.155 50.6618 277.632 49.9421C285.404 49.0786 294.327 45.0487 298.213 40.7309C301.379 37.2767 305.122 28.3534 305.122 24.4674C305.122 21.8767 304.258 21.5889 294.903 21.5889C288.57 21.5889 285.116 21.0132 285.692 20.1496C287.083 17.9636 282.645 17.0137 279.215 18.7103C277.677 19.4712 277.163 21.9141 276.049 23.0281Z" fill="black"/>
<path d="M36.9884 35.9814L30.3678 50.3739H17.2707H4.17346L2.1585 54.9795L0.287476 59.7291L12.9529 60.4487L25.6183 61.1683L18.566 76.7122C14.68 85.3477 11.5136 92.9758 11.5136 93.6954C11.5136 94.559 13.9604 94.9907 16.8389 94.7029L22.1641 94.2711L38.4277 59.0094C47.2071 39.5795 54.5473 23.316 54.5473 22.5964C54.6912 22.0207 52.2445 21.5889 49.2221 21.5889H43.609L36.9884 35.9814Z" fill="black"/>
<path d="M65.0538 25.1868C62.751 30.2242 62.6071 30.2242 68.9398 30.2242C80.166 30.2242 86.2108 40.5868 78.8706 47.4952C76.1361 49.9419 73.8333 50.3737 61.8875 50.3737C48.3585 50.3737 47.9267 50.5176 46.3435 53.9718C43.3211 60.5924 43.609 60.7363 61.5996 60.3046C80.4538 59.7289 84.1959 58.2896 89.2332 49.9419C97.0052 37.2765 87.6501 21.5887 72.2501 21.5887C67.6445 21.5887 66.3491 22.3083 65.0538 25.1868Z" fill="black"/>
<path d="M108.807 22.7402C107.799 24.4673 76.2797 93.8393 76.2797 94.415C76.2797 94.7028 78.7264 94.9907 81.8927 94.9907H87.3619L99.0198 69.5159C105.496 55.4112 112.981 38.8598 115.715 32.671L120.753 21.5888H115.139C112.117 21.5888 109.239 22.1645 108.807 22.7402Z" fill="black"/>
<path d="M130.396 25.6188L128.237 29.9366L135.577 30.5123C147.379 31.6637 152.56 40.4431 145.364 47.4955C142.198 50.8057 140.039 50.374 127.374 50.374H113.557L111.542 54.9796L109.671 59.7291L122.048 60.1609C140.471 60.8805 146.084 59.7291 151.697 53.9721C163.643 42.1702 156.734 23.6039 139.751 21.8768C132.987 21.3011 132.555 21.445 130.396 25.6188Z" fill="black"/>
<path d="M201.495 48.2146C201.495 49.5099 204.518 53.5398 208.404 57.4258C213.297 62.3193 217.183 64.766 221.933 65.9174C231.719 68.3641 233.159 68.2202 233.159 64.1903C233.159 61.3118 232.151 60.5922 227.833 59.7286C221.069 58.5772 213.585 53.9716 210.562 49.5099C207.972 45.6239 201.495 44.7604 201.495 48.2146Z" fill="black"/>
<path d="M257.626 54.6916C244.816 55.4112 243.953 55.5552 243.521 58.5776C243.089 61.7439 243.377 61.8879 256.762 61.8879H270.579V72.6823C270.579 83.1888 270.723 83.4767 274.177 83.4767C277.631 83.4767 277.775 83.1888 277.775 72.6823V61.8879H291.448C304.257 61.8879 305.121 61.7439 305.121 59.0094C305.121 57.4262 304.257 55.843 303.394 55.4112C300.084 54.4038 271.442 53.972 257.626 54.6916Z" fill="black"/>
<path d="M257.482 67.7891C256.618 69.3723 253.02 72.1068 249.566 73.5461C245.248 75.561 243.233 77.2881 243.233 79.1592C243.233 85.9237 256.906 80.8863 263.959 71.5311C268.708 65.3424 268.708 64.7667 263.383 64.7667C260.504 64.7667 258.633 65.7741 257.482 67.7891Z" fill="black"/>
<path d="M282.813 68.9399C285.692 74.6969 293.607 80.5979 299.94 81.6053C304.546 82.325 305.121 82.0371 305.121 79.4465C305.121 77.2876 303.394 75.5605 298.789 73.5455C295.335 72.1063 291.736 69.3717 290.873 67.7885C289.721 65.7736 287.85 64.7661 284.828 64.7661C280.51 64.7661 280.51 64.7661 282.813 68.9399Z" fill="black"/>
<circle cx="82.0374" cy="10.0747" r="7.19626" fill="black"/>
<circle cx="145.365" cy="10.0747" r="7.19626" fill="black"/>
</g>
<defs>
<clipPath id="clip0_473_915">
<rect width="308" height="94.9906" fill="white"/>
</clipPath>
</defs>
</svg>
